<?xml version="1.0" encoding="utf-8"?>
<!-- Generator: Adobe Illustrator 16.0.0, SVG Export Plug-In . SVG Version: 6.00 Build 0)  -->
<!DOCTYPE svg PUBLIC "-//W3C//DTD SVG 1.1//EN" "http://www.w3.org/Graphics/SVG/1.1/DTD/svg11.dtd">
<svg version="1.1" id="Layer_1" xmlns="http://www.w3.org/2000/svg" xmlns:xlink="http://www.w3.org/1999/xlink" x="0px" y="0px"
	 width="526px" height="715px" viewBox="0 0 526 715" enable-background="new 0 0 526 715" xml:space="preserve">
<g>
	<path fill="#FFFFFF" d="M42.219,2.056c-10.233,0-26.36,0-40.043-0.42c0,0,0.222,6.508,0.222,9.657c0,3.148-0.222,9.763-0.222,9.763
		h6.34c0-8.188,3.339-11.967,15.57-11.967c9.455,0,10.568,0.21,10.568,0.21v49.544c0,8.399-3.67,8.713-10.345,8.713v5.984
		c3.337,0,12.349-0.105,17.908-0.105c5.562,0,14.459,0.105,17.793,0.105v-5.984c-6.672,0-10.342-0.312-10.342-8.713V9.299
		c0,0,0.779-0.314,10.791-0.314c12.232,0,15.791,3.885,15.791,12.071h6.342c0,0-0.221-6.613-0.221-9.763s0.221-9.656,0.221-9.656
		C68.133,2.056,52.451,2.056,42.219,2.056z"/>
	<path fill="#FFFFFF" d="M336.19,16.541v42.302c0,7.35-2.445,8.713-9.121,8.713v5.984c1.668,0,11.016-0.105,16.57-0.105
		c8.121,0.105,30.924,0,48.166,0.105c0,0-0.223-5.459-0.223-8.607s0.223-8.608,0.223-8.608h-6.344
		c0,9.029-3.553,10.394-17.57,10.394c-14.016,0-16.684-2.309-16.684-8.816V39.843h9.564c11.455,0,13.789,0.527,13.789,9.031h6.344
		c0-3.15-0.225-6.51-0.225-11.758c0-5.247,0.225-8.712,0.225-11.861h-6.344c0,7.349-2.111,7.872-13.789,7.872h-9.564V9.192
		c0,0,3.559-0.417,13.566-0.417c13.348,0,16.908,1.571,16.908,9.762h6.34c0,0-0.223-5.354-0.223-8.503
		c0-3.149,0.225-8.396,0.225-8.396c-6.562,0.209-13.129,0.209-20.803,0.209c-9.232,0-17.906,0.107-23.469,0.107
		c-5.564,0-16.238-0.107-17.91-0.107V7.83C332.52,7.829,336.19,8.143,336.19,16.541z"/>
	<path fill="#FFFFFF" d="M485.063,55.42c3.172,0,6.691,2.427,15.271,2.427c12.867,0,23.93-6.394,23.93-17.482
		c0-9.308-6.262-11.573-15.783-15.297c-7.377-2.914-15.18-4.776-15.18-11.09c0-2.591,1.027-4.371,3.086-5.506
		c1.801-0.971,4.375-1.455,7.717-1.455c9.352,0,11.668,6.15,11.668,9.712h4.889c0,0-0.174-4.209-0.174-6.638
		c0-2.427,0.174-6.716,0.174-6.716s-2.742,0-3.256,0c-3.434,0-6.52-1.539-13.727-1.539c-5.662,0-10.639,1.134-14.322,3.317
		c-4.293,2.591-6.947,6.477-6.947,11.574c0,8.904,7.293,12.789,14.84,15.785c7.803,3.074,15.863,4.855,15.863,11.088
		c0,7.285-6.006,9.065-12.604,9.065c-7.467,0-13.809-3.239-13.809-12.062h-4.893c0,0,0.168,4.941,0.168,7.365
		c0,2.432-0.168,7.449-0.168,7.449S484.551,55.42,485.063,55.42z"/>
	<path fill="#FFFFFF" d="M481.573,67.556h-1.006c-4.336,0-11.342-5.246-17.236-11.858c-5.451-5.984-9.457-11.232-12.014-14.595
		c2.893-1.048,8.781-4.514,12.234-8.815c2.447-3.045,4.115-7.137,4.115-11.44c0-10.707-8.896-19.001-25.693-19.001
		c-14.018,0-17.463,0.107-23.023,0.107s-16.24-0.107-17.908-0.107V7.83c6.676,0,10.346,0.313,10.346,8.712v42.302
		c0,7.35-2.449,8.713-9.123,8.713v5.984c1.668,0,11.012-0.21,16.574-0.21c5.564,0,15.018,0.21,16.686,0.21v-5.984
		c-6.676,0-9.121-1.363-9.121-8.713v-13.96c0,0,3.445,0.314,4.449,0.314c2.893,0.105,7.34,0.313,7.34,0.313
		c6.23,8.818,8.121,12.389,13.904,18.478c7.115,7.452,13.125,10.075,21.133,10.075c4.896,0,8.346-0.63,8.346-0.63v-5.879H481.573z
		 M437.858,39.215c0,0-2.334,0-5.447-0.104c-2.668-0.105-6.008-0.525-6.008-0.525V8.67c0,0,4.334-0.313,9.898-0.313
		c8.787,0,16.02,3.566,16.02,13.959C452.321,32.602,446.537,39.215,437.858,39.215z"/>
	<path fill="#FFFFFF" d="M152.999,56.324c0,9.029-3.559,10.394-17.572,10.394c-14.013,0-16.684-2.309-16.684-8.816V39.843h9.565
		c11.457,0,13.793,0.527,13.793,9.031h6.339c0-3.15-0.222-6.51-0.222-11.758c0-5.247,0.222-8.712,0.222-11.861h-6.339
		c0,7.349-2.112,7.872-13.793,7.872h-9.565V9.192c0,0,3.559-0.417,13.567-0.417c13.349,0,16.908,1.571,16.908,9.762h6.34
		c0,0-0.223-5.354-0.223-8.503c0-3.149,0.222-8.396,0.222-8.396c-6.562,0.209-13.123,0.209-20.799,0.209
		c-9.231,0-17.908,0.107-23.471,0.107c-5.562,0-16.238-0.107-17.908-0.107V7.83c6.676,0,10.349,0.313,10.349,8.712v42.302
		c0,7.35-2.449,8.713-9.121,8.713v5.984c1.664,0,11.008-0.105,16.571-0.105c8.119,0.105,30.922,0,48.16,0.105
		c0,0-0.221-5.459-0.221-8.607s0.221-8.608,0.221-8.608L152.999,56.324L152.999,56.324z"/>
	<path fill="#FFFFFF" d="M318.506,64.094c0-3.147,0.223-9.342,0.223-9.342h-6.338c0,8.607-2.893,11.546-15.236,11.546
		c-14.127,0-16.797-1.47-16.797-9.133V16.541c0-8.397,3.668-8.712,10.348-8.712V1.845c-4.455,0-12.236,0.211-17.801,0.211
		c-5.561,0-16.237-0.211-17.907-0.211v5.984c6.674,0,10.346,0.313,10.346,8.712v42.302c0,7.35-2.448,8.713-9.124,8.713v5.984
		c1.67,0,11.012-0.105,16.573-0.105c8.121,0.105,28.699,0,45.938,0.105C318.729,73.54,318.506,67.242,318.506,64.094z"/>
	<path fill="#FFFFFF" d="M217.847,1.845v5.984c6.785,0,8.896,4.828,5.449,8.712l-14.459,16.27l-13.57-16.478
		c-4.78-5.774-3.446-8.504,4.117-8.504V1.845c-3.34,0-11.567,0.211-17.129,0.211c-5.563,0-13.795-0.211-17.131-0.211v5.984
		c4.449,0,8.01,3.673,10.457,6.822l22.91,28.027v16.163c0,8.399-3.668,8.713-10.346,8.713v5.984c3.34,0,12.348-0.105,17.907-0.105
		c5.562,0,14.463,0.105,17.8,0.105v-5.984c-6.675,0-10.345-0.312-10.345-8.713V38.584l19.91-22.462
		c4.562-5.146,7.676-8.293,13.789-8.293V1.845c-3.336,0-9.117,0.211-14.682,0.211C226.969,2.056,221.183,1.845,217.847,1.845z"/>
</g>
<path fill="#FFFFFF" d="M524.203,111.863l-0.002-0.002v-1.984h-1.988H3.722H1.737v1.987v160.91v1.986h1.985H180.53v436.051v1.985
	h1.985h160.913h1.986V274.761h176.799h1.988v-1.984l0.002-0.002V111.863L524.203,111.863z M5.71,267.977V116.657l75.66,75.661
	L5.71,267.977z M520.227,267.974l-75.656-75.655l75.656-75.656V267.974z M184.503,273.597l76.48-76.481v432.417l-76.48,76.482
	V273.597z M264.957,197.115l76.479,76.481v432.419l-76.479-76.484V197.115z M267.203,113.849h0.809l0.596,0.246l0.244-0.246h248.566
	l-76.48,76.482H262.969H85.001L8.521,113.849H267.203L267.203,113.849z M8.521,270.787l75.977-75.979H257.67l-75.977,75.979H8.521z
	 M187.31,708.824l47.71-47.711l27.948-27.947l75.661,75.658H187.31z M344.248,270.787l-75.98-75.979H441.44l75.98,75.979H344.248z"
	/>
</svg>
